# xmcd CD database file generated by OrangeCD 5.1
#
# Track frame offsets:
#	150
#	15777
#	33930
#	54445
#	69405
#	83782
#	98350
#	119117
#	137232
#	153025
#	168580
#	185147
#	198242
#	216010
#	230505
#	241510
#	263557
#	284090
#	301355
#	316945
#
# Disc length: 4469 seconds
#
# Revision: 2
# Processed by: cddbd v1.4PL0 Copyright (c) Steve Scherf et al.
# Submitted via: OrangeCD 5.1
#
DISCID=07117314
DTITLE=Various Artist - Texas Road Trip
DYEAR=2001
DGENRE=Country
TTITLE0=Gary P. Nunn - Road Trip
TTITLE1=Robert Earl Keen - Swervin' In My Lane
TTITLE2=Roger Creager - Fun All Wrong
TTITLE3=Jack Ingram - Runaway Cadillac
TTITLE4=Ed Burleson - Goin' Home To Texas
TTITLE5=Owen Temple - Driving Myself Crazy
TTITLE6=Cory Morrow - Texas Time Travelin'
TTITLE7=Chris Wall - Damn Good Time
TTITLE8=Jason Boland and The Stragglers - Travelin' Jones
TTITLE9=Dub Miller - Miles and Memories
TTITLE10=Clay Blaker - Heartbreak Highway
TTITLE11=Cooder Graw - 18 Wheels of Loving
TTITLE12=Max Sterling - I-35
TTITLE13=Cross Canadian Ragweed - 42 Miles
TTITLE14=Rodney Hayden - Heartaches and Highways
TTITLE15=Tommy Alverson - Hill Country Here I Come
TTITLE16=Mark David Manders - Headin' Out West
TTITLE17=Luke Olson - Panhandle Sunset
TTITLE18=Phil Pritchett - Rolling
TTITLE19=Kevin Fowler - Road Song Medley
EXTD=YEAR: 2001 ID3G:   2
EXTT0=
EXTT1=
EXTT2=
EXTT3=
EXTT4=
EXTT5=
EXTT6=
EXTT7=
EXTT8=
EXTT9=
EXTT10=
EXTT11=
EXTT12=
EXTT13=
EXTT14=
EXTT15=
EXTT16=
EXTT17=
EXTT18=
EXTT19=
PLAYORDER=
